<svg width="196" height="36" viewBox="0 0 196 36" fill="none" xmlns="http://www.w3.org/2000/svg">
<path d="M194.174 15.6034C194.088 15.341 193.975 15.1059 193.834 14.898C193.697 14.6875 193.532 14.5083 193.339 14.3602C193.15 14.2121 192.934 14.099 192.693 14.0211C192.451 13.9432 192.186 13.9042 191.897 13.9042C191.425 13.9042 190.995 14.0263 190.607 14.2705C190.22 14.5148 189.912 14.8746 189.684 15.3501C189.455 15.8256 189.341 16.4089 189.341 17.1C189.341 17.7911 189.456 18.3744 189.688 18.8499C189.919 19.3254 190.232 19.6852 190.627 19.9295C191.022 20.1737 191.466 20.2958 191.96 20.2958C192.417 20.2958 192.82 20.1984 193.168 20.0035C193.519 19.8061 193.792 19.528 193.986 19.1695C194.184 18.8083 194.283 18.3835 194.283 17.8951L194.579 17.9574H192.178V17.1H195.218V17.9574C195.218 18.6148 195.078 19.1864 194.797 19.6722C194.519 20.1581 194.135 20.5349 193.643 20.8025C193.155 21.0675 192.594 21.2 191.96 21.2C191.253 21.2 190.632 21.0337 190.097 20.7011C189.564 20.3686 189.149 19.8957 188.85 19.2825C188.554 18.6693 188.405 17.9418 188.405 17.1C188.405 16.4686 188.49 15.9009 188.659 15.3969C188.83 14.8902 189.072 14.4589 189.384 14.1029C189.695 13.747 190.064 13.4742 190.491 13.2845C190.917 13.0948 191.386 13 191.897 13C192.318 13 192.711 13.0637 193.074 13.191C193.441 13.3157 193.767 13.4937 194.053 13.7249C194.341 13.9535 194.581 14.2277 194.774 14.5472C194.966 14.8642 195.098 15.2163 195.171 15.6034H194.174Z" fill="white"/>
<path d="M178.002 13.1096V21.0914H177.067L172.717 14.8244H172.639V21.0914H171.673V13.1096H172.608L176.973 19.3921H177.051V13.1096H178.002Z" fill="white"/>
<path d="M160.954 13.1096V21.0914H159.988V13.1096H160.954Z" fill="white"/>
<path d="M149.272 13.1096V21.0914H148.337L143.988 14.8244H143.91V21.0914H142.943V13.1096H143.879L148.244 19.3921H148.322V13.1096H149.272Z" fill="white"/>
<path d="M132.224 13.1096V21.0914H131.258V13.1096H132.224Z" fill="white"/>
<path d="M115.388 21.0914H114.374L117.305 13.1096H118.303L121.234 21.0914H120.22L117.835 14.3724H117.773L115.388 21.0914ZM115.762 17.9735H119.846V18.8309H115.762V17.9735Z" fill="white"/>
<path d="M99.2591 21.0914V13.1096H101.956C102.58 13.1096 103.091 13.2161 103.492 13.4292C103.892 13.6397 104.188 13.9294 104.38 14.2983C104.572 14.6673 104.669 15.0869 104.669 15.5571C104.669 16.0274 104.572 16.4444 104.38 16.8082C104.188 17.1719 103.893 17.4577 103.495 17.6656C103.098 17.8709 102.59 17.9735 101.972 17.9735H99.7891V17.1005H101.94C102.367 17.1005 102.71 17.0381 102.969 16.9134C103.232 16.7887 103.421 16.612 103.538 16.3834C103.658 16.1521 103.718 15.8767 103.718 15.5571C103.718 15.2376 103.658 14.9583 103.538 14.7192C103.419 14.4802 103.228 14.2957 102.965 14.1658C102.703 14.0333 102.356 13.967 101.925 13.967H100.226V21.0914H99.2591ZM103.016 17.5058L104.98 21.0914H103.858L101.925 17.5058H103.016Z" fill="white"/>
<path d="M83 13.967V13.1096H88.9863V13.967H86.4764V21.0914H85.5099V13.967H83Z" fill="white"/>
<path d="M163.804 35.1094V27.1094H166.507C167.132 27.1094 167.645 27.2161 168.046 27.4297C168.447 27.6406 168.744 27.931 168.937 28.3008C169.129 28.6706 169.226 29.0911 169.226 29.5625C169.226 30.0339 169.129 30.4518 168.937 30.8164C168.744 31.181 168.448 31.4674 168.05 31.6758C167.651 31.8815 167.142 31.9844 166.522 31.9844H164.335V31.1094H166.491C166.918 31.1094 167.262 31.0469 167.522 30.9219C167.785 30.7969 167.976 30.6198 168.093 30.3906C168.213 30.1589 168.272 29.8828 168.272 29.5625C168.272 29.2422 168.213 28.9622 168.093 28.7227C167.973 28.4831 167.782 28.2982 167.519 28.168C167.256 28.0352 166.908 27.9688 166.476 27.9688H164.772V35.1094H163.804ZM167.569 31.5156L169.538 35.1094H168.413L166.476 31.5156H167.569Z" fill="white"/>
<path d="M148.43 35.1094V27.1094H153.258V27.9688H149.398V30.6719H153.008V31.5312H149.398V34.25H153.32V35.1094H148.43Z" fill="white"/>
<path d="M132.134 27.9688V27.1094H138.134V27.9688H135.619V35.1094H134.65V27.9688H132.134Z" fill="white"/>
<path d="M121.833 27.1094V35.1094H120.896L116.537 28.8281H116.458V35.1094H115.49V27.1094H116.427L120.802 33.4062H120.88V27.1094H121.833Z" fill="white"/>
<path d="M100.115 35.1094V27.1094H104.944V27.9688H101.084V30.6719H104.694V31.5312H101.084V34.25H105.006V35.1094H100.115Z" fill="white"/>
<path d="M89.75 29.6094H88.7813C88.724 29.3307 88.6237 29.0859 88.4805 28.875C88.3398 28.6641 88.168 28.487 87.9648 28.3438C87.7643 28.1979 87.5417 28.0885 87.2969 28.0156C87.0521 27.9427 86.7969 27.9062 86.5313 27.9062C86.0469 27.9062 85.6081 28.0286 85.2148 28.2734C84.8242 28.5182 84.513 28.8789 84.2813 29.3555C84.0521 29.832 83.9375 30.4167 83.9375 31.1094C83.9375 31.8021 84.0521 32.3867 84.2813 32.8633C84.513 33.3398 84.8242 33.7005 85.2148 33.9453C85.6081 34.1901 86.0469 34.3125 86.5313 34.3125C86.7969 34.3125 87.0521 34.276 87.2969 34.2031C87.5417 34.1302 87.7643 34.0221 87.9648 33.8789C88.168 33.7331 88.3398 33.5547 88.4805 33.3438C88.6237 33.1302 88.724 32.8854 88.7813 32.6094H89.75C89.6771 33.0182 89.5443 33.3841 89.3516 33.707C89.1589 34.0299 88.9193 34.3047 88.6328 34.5312C88.3464 34.7552 88.0247 34.9258 87.668 35.043C87.3138 35.1602 86.9349 35.2188 86.5313 35.2188C85.849 35.2188 85.2422 35.0521 84.7109 34.7188C84.1797 34.3854 83.7617 33.9115 83.457 33.2969C83.1523 32.6823 83 31.9531 83 31.1094C83 30.2656 83.1523 29.5365 83.457 28.9219C83.7617 28.3073 84.1797 27.8333 84.7109 27.5C85.2422 27.1667 85.849 27 86.5313 27C86.9349 27 87.3138 27.0586 87.668 27.1758C88.0247 27.293 88.3464 27.4648 88.6328 27.6914C88.9193 27.9154 89.1589 28.1888 89.3516 28.5117C89.5443 28.832 89.6771 29.1979 89.75 29.6094Z" fill="white"/>
<path d="M24.8311 35L29.3829 8.9502H25L26.5482 0L42 0L40.4518 8.9502L35.8908 35H24.8311Z" fill="#F1F5F9"/>
<path d="M71.1953 35L77.4297 0H75.5L60 15L69.5 35H71.1953Z" fill="#06B6D4"/>
<path d="M42.3667 14.2921L56.7625 0H71L56.0544 14.3957L65.1112 35H52.3832L47.2492 21.8291L40 28.1319L42.3667 14.2921Z" fill="#F1F5F9"/>
<path d="M0 35L6.19986 0H17.4236L15.1374 12.7658H25.4807L23.9096 21.7254H13.5663L11.2237 35H0Z" fill="#F1F5F9"/>
<path d="M24.52 35.0498L29.1765 9.00001L31 0L46.6064 0.0498047L44.5 9L40.5 9.00001L35.834 35.0498H24.52Z" fill="#F1F5F9"/>
</svg>
