<svg width="135" height="47" viewBox="0 0 135 47" fill="none" xmlns="http://www.w3.org/2000/svg">
<path d="M0 37.15L6.59 0H18.52L16.09 13.55H29.21L31.64 0H43.58L36.99 37.15H25.06L27.54 23.06H14.42L11.93 37.15H0Z" fill="#F1F5F9"/>
<path d="M51.04 37.15L55.95 9.5H43.75L45.42 0H81.71L80.04 9.5H67.89L62.97 37.15H51.04Z" fill="#F1F5F9"/>
<path d="M76.97 37.15L83.56 0H95.49L92.79 15.17L108.24 0H123.52L107.48 15.28L117.2 37.15H103.54L98.03 23.17L90.25 29.86L88.9 37.15H76.97Z" fill="#F1F5F9"/>
<path d="M133 0H128C126.895 0 126 0.89543 126 2V7C126 8.10457 126.895 9 128 9H133C134.105 9 135 8.10457 135 7V2C135 0.895431 134.105 0 133 0Z" fill="#06B6D4"/>
<path d="M79.3675 46.9201V41.0798H82.0226C82.6365 41.0798 83.1404 41.1578 83.5343 41.3137C83.9282 41.4677 84.2198 41.6796 84.4091 41.9496C84.5984 42.2196 84.6931 42.5266 84.6931 42.8707C84.6931 43.2148 84.5984 43.5199 84.4091 43.7861C84.2198 44.0523 83.9295 44.2614 83.5382 44.4135C83.1468 44.5637 82.6467 44.6388 82.038 44.6388H79.8894V44H82.0073C82.4268 44 82.7644 43.9544 83.0202 43.8631C83.2785 43.7718 83.4653 43.6426 83.5804 43.4753C83.698 43.3061 83.7569 43.1045 83.7569 42.8707C83.7569 42.6369 83.698 42.4325 83.5804 42.2576C83.4627 42.0827 83.2747 41.9477 83.0164 41.8526C82.758 41.7557 82.4165 41.7072 81.9919 41.7072H80.3191V46.9201H79.3675ZM83.0662 44.2966L85 46.9201H83.895L81.9919 44.2966H83.0662Z" fill="#71717A"/>
<path d="M64.2666 46.9201V41.0798H69.0089V41.7072H65.2181V43.6806H68.7633V44.308H65.2181V46.2928H69.0703V46.9201H64.2666Z" fill="#71717A"/>
<path d="M48.2611 41.7072V41.0798H54.1544V41.7072H51.6835V46.9201H50.732V41.7072H48.2611Z" fill="#71717A"/>
<path d="M38.1432 41.0798V46.9201H37.2224L32.9405 42.3346H32.8637V46.9201H31.9122V41.0798H32.833L37.1303 45.6768H37.207V41.0798H38.1432Z" fill="#71717A"/>
<path d="M16.8112 46.9201V41.0798H21.5535V41.7072H17.7628V43.6806H21.308V44.308H17.7628V46.2928H21.6149V46.9201H16.8112Z" fill="#71717A"/>
<path d="M6.63003 42.9049H5.6785C5.62222 42.7015 5.52375 42.5228 5.38306 42.3688C5.24494 42.2148 5.07612 42.0856 4.8766 41.981C4.67964 41.8745 4.46095 41.7947 4.2205 41.7414C3.98006 41.6882 3.72939 41.6616 3.46849 41.6616C2.99272 41.6616 2.56172 41.751 2.17548 41.9297C1.7918 42.1084 1.48613 42.3717 1.25848 42.7196C1.03338 43.0675 0.920837 43.4943 0.920837 44C0.920837 44.5057 1.03338 44.9325 1.25848 45.2804C1.48613 45.6283 1.7918 45.8916 2.17548 46.0703C2.56172 46.249 2.99272 46.3384 3.46849 46.3384C3.72939 46.3384 3.98006 46.3118 4.2205 46.2586C4.46095 46.2053 4.67964 46.1264 4.8766 46.0219C5.07612 45.9154 5.24494 45.7852 5.38306 45.6312C5.52375 45.4753 5.62222 45.2966 5.6785 45.0951H6.63003C6.55841 45.3935 6.42796 45.6606 6.23867 45.8964C6.04939 46.1321 5.81406 46.3327 5.5327 46.4981C5.25133 46.6616 4.93543 46.7861 4.585 46.8717C4.23713 46.9572 3.86496 47 3.46849 47C2.79832 47 2.20234 46.8783 1.68053 46.635C1.15872 46.3916 0.74818 46.0456 0.448908 45.597C0.149636 45.1483 0 44.616 0 44C0 43.384 0.149636 42.8517 0.448908 42.403C0.74818 41.9544 1.15872 41.6084 1.68053 41.365C2.20234 41.1217 2.79832 41 3.46849 41C3.86496 41 4.23713 41.0428 4.585 41.1283C4.93543 41.2139 5.25133 41.3394 5.5327 41.5048C5.81406 41.6683 6.04939 41.8679 6.23867 42.1036C6.42796 42.3375 6.55841 42.6046 6.63003 42.9049Z" fill="#71717A"/>
</svg>
